<svg width="140" height="140" viewBox="0 0 140 140" fill="none" xmlns="http://www.w3.org/2000/svg">
<path d="M140 0H0V140H140V0Z" fill="url(#paint0_linear_6:291)"/>
<path d="M19.78 94.42C19.89 93.94 20.19 93.51 20.6 93.21C21 92.89 21.5 92.72 22.03 92.71H29.9L29.65 93.76H21.78C21.58 93.76 21.39 93.83 21.24 93.95C21.08 94.07 20.97 94.23 20.92 94.42L20.38 96.73H28.96L28.72 97.79H20.14L19.13 102.13H18L19.78 94.42ZM31.15 100.42C31.14 100.47 31.13 100.52 31.13 100.57C31.13 100.68 31.17 100.79 31.25 100.88C31.36 101.01 31.53 101.08 31.71 101.07H38.85L38.6 102.12H31.46C30.67 102.16 30 101.61 29.96 100.89C29.96 100.86 29.96 100.83 29.96 100.79C29.96 100.66 29.98 100.54 30 100.41L31.78 92.7H32.93L31.15 100.42ZM51.08 92.71C51.88 92.68 52.64 92.99 53.14 93.57C53.49 93.97 53.68 94.48 53.68 95C53.68 95.22 53.65 95.43 53.6 95.65L52.78 99.2C52.58 100.02 52.08 100.75 51.36 101.27C50.68 101.82 49.81 102.12 48.91 102.13H43.68C42.88 102.16 42.12 101.84 41.62 101.27C41.27 100.87 41.08 100.36 41.09 99.85C41.09 99.63 41.12 99.42 41.17 99.2L41.99 95.65C42.18 94.83 42.68 94.09 43.4 93.57C44.08 93.02 44.96 92.72 45.86 92.71H51.08ZM52.44 95.64C52.47 95.5 52.49 95.37 52.49 95.23C52.49 94.9 52.37 94.57 52.15 94.31C51.83 93.94 51.34 93.73 50.83 93.76H45.6C45.02 93.76 44.47 93.96 44.04 94.31C43.58 94.64 43.25 95.11 43.13 95.64L42.31 99.19C42.28 99.33 42.26 99.46 42.26 99.6C42.25 100.4 42.96 101.06 43.83 101.07C43.86 101.07 43.89 101.07 43.92 101.07H49.15C49.73 101.07 50.28 100.87 50.71 100.52C51.17 100.19 51.49 99.72 51.62 99.2L52.44 95.64ZM72.19 92.71H73.34L71.84 99.2C71.64 100.02 71.14 100.75 70.42 101.27C69.74 101.82 68.87 102.12 67.97 102.13H65.18C64.07 102.13 63.29 101.71 62.85 100.87C62.02 101.71 61.05 102.13 59.95 102.13H57.16C56.36 102.16 55.6 101.85 55.1 101.27C54.75 100.87 54.56 100.36 54.57 99.85C54.57 99.63 54.6 99.42 54.65 99.2L56.15 92.71H57.29L55.79 99.2C55.76 99.34 55.74 99.47 55.74 99.61C55.74 99.94 55.86 100.26 56.08 100.52C56.4 100.89 56.89 101.09 57.4 101.07H60.19C60.77 101.07 61.32 100.87 61.75 100.52C62.21 100.19 62.53 99.72 62.66 99.2L64.16 92.71H65.31L63.81 99.2C63.78 99.34 63.76 99.47 63.76 99.61C63.75 100.41 64.46 101.07 65.33 101.08C65.36 101.08 65.39 101.08 65.42 101.08H68.21C68.79 101.08 69.35 100.88 69.78 100.53C70.24 100.2 70.56 99.73 70.68 99.21L72.19 92.71ZM82.81 96.73C83.29 96.71 83.75 96.91 84.05 97.26C84.26 97.5 84.38 97.81 84.38 98.12C84.38 98.25 84.36 98.38 84.33 98.51L83.91 100.35C83.79 100.84 83.49 101.29 83.06 101.6C82.65 101.93 82.12 102.11 81.58 102.12H73.06L73.31 101.07H81.83C82.05 101.07 82.26 100.99 82.42 100.86C82.6 100.73 82.72 100.56 82.77 100.35L83.19 98.51C83.2 98.46 83.21 98.4 83.21 98.34C83.21 98.22 83.17 98.1 83.08 98C82.96 97.86 82.77 97.78 82.57 97.79H75.9C75.44 97.81 74.99 97.62 74.71 97.29C74.51 97.05 74.4 96.76 74.41 96.46C74.41 96.33 74.43 96.21 74.45 96.08L74.83 94.42C74.94 93.94 75.23 93.51 75.65 93.21C76.05 92.89 76.55 92.72 77.08 92.71H85.68L85.43 93.77H76.83C76.63 93.77 76.44 93.84 76.29 93.96C76.13 94.07 76.02 94.24 75.97 94.42L75.59 96.08C75.58 96.13 75.57 96.18 75.57 96.23C75.57 96.34 75.61 96.46 75.69 96.54C75.8 96.66 75.97 96.73 76.15 96.73H82.81Z" fill="white"/>
<path d="M86.82 101.76C86.81 101.55 86.87 101.34 87 101.17C87.12 101.03 87.3 100.95 87.5 100.95C87.82 100.95 87.98 101.11 87.98 101.43C87.99 101.64 87.93 101.84 87.8 102.01C87.69 102.16 87.51 102.24 87.32 102.24C86.98 102.24 86.82 102.08 86.82 101.76ZM91.87 102.12H91.13L93.22 93.02H90.1L90.24 92.39H97.28L97.14 93.02H93.96L91.87 102.12ZM101.83 102.12H96.57L98.81 92.39H104.07L103.92 93.02H99.4L98.55 96.7H102.82L102.67 97.33H98.41L97.43 101.5H101.97L101.83 102.12ZM110.5 92.88C109.59 92.87 108.71 93.11 107.96 93.58C107.17 94.09 106.56 94.79 106.19 95.61C105.75 96.53 105.52 97.53 105.54 98.54C105.54 99.54 105.81 100.31 106.34 100.84C106.87 101.38 107.64 101.65 108.64 101.65C109.39 101.64 110.13 101.52 110.84 101.31V101.94C110.1 102.16 109.33 102.27 108.55 102.27C107.33 102.27 106.4 101.95 105.76 101.3C105.11 100.66 104.79 99.75 104.79 98.57C104.78 97.45 105.03 96.34 105.54 95.32C105.98 94.4 106.7 93.62 107.6 93.05C108.46 92.52 109.48 92.25 110.51 92.26C111.28 92.24 112.04 92.4 112.73 92.71L112.4 93.31C112.12 93.17 111.81 93.07 111.5 93C111.17 92.92 110.84 92.88 110.5 92.88ZM119.7 102.12H118.98L120.07 97.33H114.57L113.49 102.12H112.74L114.98 92.39H115.72L114.71 96.71H120.21L121.2 92.39H121.92L119.7 102.12Z" fill="white"/>
<path d="M111.117 78.0343H70.2912L73.7724 61.894C74.2471 59.5995 75.5922 57.5424 77.4119 56.0392C79.1525 54.4568 81.447 53.5865 83.8206 53.5865H107.556C107.873 53.5865 108.11 53.5073 108.347 53.27C108.585 53.1117 108.822 52.7953 108.901 52.4788L110.325 45.9119V45.8328C110.325 45.8328 110.325 45.7537 110.246 45.7537V45.6746C110.167 45.6746 110.088 45.6746 110.009 45.6746H78.0449L79.7064 38.0791H110.879C113.095 38 115.152 38.9494 116.497 40.69C117.446 41.8768 118 43.4592 118 45.0416C118 45.6746 117.921 46.2284 117.842 46.8613L116.497 53.3491C116.022 55.5644 114.756 57.5424 112.936 58.9666C111.196 60.4698 109.06 61.261 106.765 61.3401H83.0294C82.6338 61.3401 82.2382 61.4984 82.0008 61.7357C81.6843 61.9731 81.447 62.2896 81.3679 62.6852L79.7064 70.5179H112.857L111.117 78.0343ZM59.4519 78.0343H51.7773L53.4388 69.885H25.3515C23.2153 70.0432 21.3165 68.4608 21 66.3246V66.2455C21 66.0873 21 65.8499 21 65.6126C21 65.217 21 64.9005 21.0791 64.5049C21.1582 64.1093 21.3165 63.7137 21.4747 63.3181V63.239V63.1599C21.9494 62.2104 22.7406 61.4192 23.6109 60.8654L59.531 38.9494C60.4013 38.3956 61.4299 38.0791 62.5375 38C63.2496 38 63.9617 38.1582 64.5946 38.4747C66.0188 39.1077 66.8891 40.6109 66.8891 42.1142C66.8891 42.5098 66.8891 42.9054 66.81 43.2219V43.301L62.7749 62.2104H70.5285L68.867 69.8059H61.1134L59.4519 78.0343ZM35.2414 62.1313H55.2586L58.2651 48.1272L35.2414 62.1313Z" fill="white"/>
<defs>
<linearGradient id="paint0_linear_6:291" x1="15.1597" y1="44.6151" x2="78.1919" y2="133.031" gradientUnits="userSpaceOnUse">
<stop stop-color="#4589C9"/>
<stop offset="1" stop-color="#984E99"/>
</linearGradient>
</defs>
</svg>
